<?xml version="1.0" encoding="UTF-8" standalone="no"?>
<!DOCTYPE svg PUBLIC "-//W3C//DTD SVG 1.1//EN" "http://www.w3.org/Graphics/SVG/1.1/DTD/svg11.dtd">
<svg width="100%" height="100%" viewBox="0 0 743 671" version="1.1" xmlns="http://www.w3.org/2000/svg" xmlns:xlink="http://www.w3.org/1999/xlink" xml:space="preserve" xmlns:serif="http://www.serif.com/" style="fill-rule:evenodd;clip-rule:evenodd;stroke-linejoin:round;stroke-miterlimit:2;">
    <g transform="matrix(1,0,0,1,-228.714,-114.896)">
        <path d="M683.679,744.339C687.665,756.4 679.502,769.942 679.502,769.942C679.502,769.942 664.877,763.93 660.891,751.869C656.906,739.808 665.068,726.266 665.068,726.266C665.068,726.266 679.694,732.278 683.679,744.339Z" style="fill:rgb(230,230,230);fill-rule:nonzero;"/>
    </g>
    <g transform="matrix(1,0,0,1,-228.714,-114.896)">
        <path d="M955.901,755.284C948.301,765.462 932.524,766.533 932.524,766.533C932.524,766.533 929.07,751.102 936.67,740.924C944.27,730.746 960.047,729.675 960.047,729.675C960.047,729.675 963.501,745.106 955.901,755.284Z" style="fill:rgb(230,230,230);fill-rule:nonzero;"/>
    </g>
    <ellipse cx="573.571" cy="658.208" rx="169" ry="12" style="fill:rgb(230,230,230);"/>
    <rect x="0.28" y="0.371" width="654.863" height="419.404" style="fill:rgb(230,230,230);"/>
    <rect x="19.005" y="52.975" width="617.412" height="341.988" style="fill:white;"/>
    <rect x="0" y="0" width="654.863" height="27.821" style="fill:rgb(94,214,179);"/>
    <circle cx="20.674" cy="14.224" r="5.156" style="fill:white;"/>
    <circle cx="40.247" cy="14.224" r="5.156" style="fill:white;"/>
    <circle cx="59.819" cy="14.224" r="5.156" style="fill:white;"/>
    <g transform="matrix(2.64065,0,0,2.64065,-821.135,-133.879)">
        <text x="422.807px" y="86.863px" style="font-family:'Calibri-Bold', 'Calibri', sans-serif;font-weight:700;font-size:12px;fill-opacity:0.77;">B<tspan x="429.417px 436.688px " y="86.863px 86.863px ">AB</tspan> I</text>
    </g>
    <g transform="matrix(0.845965,0,0,1,68.2618,0)">
        <rect x="211.989" y="137.083" width="231.169" height="8.701" style="fill:rgb(230,230,230);"/>
    </g>
    <g transform="matrix(0.937129,0,0,1,27.862,0)">
        <rect x="211.989" y="163.641" width="231.169" height="8.701" style="fill:rgb(230,230,230);"/>
    </g>
    <g transform="matrix(0.875279,0,0,1,41.3368,0)">
        <rect x="211.989" y="190.536" width="119.445" height="8.701" style="fill:rgb(230,230,230);"/>
    </g>
    <g transform="matrix(0.842821,0,0,1,69.6549,0)">
        <rect x="211.989" y="217.908" width="231.169" height="8.701" style="fill:rgb(230,230,230);"/>
    </g>
    <g transform="matrix(0.319417,0,0,1,159.9,0)">
        <rect x="211.989" y="245.28" width="231.169" height="8.701" style="fill:rgb(230,230,230);"/>
    </g>
    <g transform="matrix(0.471442,0,0,1,112.048,0)">
        <rect x="211.989" y="272.651" width="115.445" height="8.701" style="fill:rgb(166,166,166);"/>
    </g>
    <g transform="matrix(0.471442,0,0,1,113.502,-160.6)">
        <rect x="211.989" y="272.651" width="115.445" height="8.701" style="fill:rgb(166,166,166);"/>
    </g>
    <g transform="matrix(0.853374,0,0,1,64.9786,0)">
        <rect x="211.989" y="300.023" width="231.169" height="8.701" style="fill:rgb(230,230,230);"/>
    </g>
    <rect x="211.989" y="327.395" width="231.169" height="8.701" style="fill:rgb(230,230,230);"/>
    <rect x="370.434" y="360.969" width="73" height="24" style="fill:rgb(44,59,92);"/>
    <g transform="matrix(1,0,0,1,-228.714,-114.896)">
        <path d="M686.455,467.561L685.899,467.997L673.078,478.072C673.078,478.072 654.923,497.182 648.234,486.671C641.545,476.161 667.345,463.739 667.345,463.739L676.9,457.05L686.455,467.561Z" style="fill:rgb(255,214,182);fill-rule:nonzero;"/>
    </g>
    <g transform="matrix(1,0,0,1,-228.714,-114.896)">
        <path d="M891.414,480.46C891.414,480.46 883.77,507.215 881.859,509.126L867.526,488.105L874.215,476.638L891.414,480.46Z" style="fill:rgb(255,214,182);fill-rule:nonzero;"/>
    </g>
    <g transform="matrix(1,0,0,1,-228.714,-114.896)">
        <path d="M868.96,483.805L882.337,509.604L875.648,535.403L875.648,616.622L882.337,737.973L846.983,737.973L813.539,541.136L776.274,737.973L739.964,737.973L747.608,611.845L745.697,538.269C745.697,538.269 746.653,495.271 756.208,491.449C765.763,487.627 868.96,483.805 868.96,483.805Z" style="fill:rgb(47,46,65);fill-rule:nonzero;"/>
    </g>
    <g transform="matrix(1,0,0,1,-228.714,-114.896)">
        <path d="M874.693,733.196L877.559,744.662C877.559,744.662 888.07,752.306 885.203,760.906C882.337,769.506 884.248,774.283 877.559,776.194C870.871,778.105 848.894,780.972 849.849,771.417C850.805,761.861 849.849,741.795 849.849,741.795L852.716,735.107L874.693,733.196Z" style="fill:rgb(47,46,65);fill-rule:nonzero;"/>
    </g>
    <g transform="matrix(1,0,0,1,-228.714,-114.896)">
        <path d="M748.564,733.196L745.697,744.662C745.697,744.662 735.187,752.306 738.053,760.906C740.92,769.506 739.009,774.283 745.697,776.194C752.386,778.105 774.363,780.972 773.407,771.417C772.452,761.861 773.407,741.795 773.407,741.795L770.541,735.107L748.564,733.196Z" style="fill:rgb(47,46,65);fill-rule:nonzero;"/>
    </g>
    <circle cx="556.637" cy="130.83" r="33.289" style="fill:rgb(255,214,182);"/>
    <path d="M582.465,145.179L587.057,183.06L545.732,183.06L549.176,150.918L582.465,145.179Z" style="fill:rgb(255,214,182);fill-rule:nonzero;"/>
    <g transform="matrix(1,0,0,1,-228.714,-114.896)">
        <path d="M731.842,313.244C731.842,313.244 772.93,285.534 792.996,285.534C813.062,285.534 863.704,296.045 871.348,308.467L865.615,442.24C865.615,442.24 878.993,462.305 871.348,469.95C863.704,477.594 872.782,493.36 872.782,493.36C872.782,493.36 813.062,490.016 792.996,498.615C772.93,507.215 749.042,498.615 749.042,498.615C749.042,498.615 759.075,485.716 749.519,481.894C739.964,478.072 755.253,416.918 755.253,416.918L750.953,378.22L731.842,313.244Z" style="fill:rgb(94,214,179);fill-rule:nonzero;"/>
    </g>
    <g transform="matrix(1,0,0,1,-228.714,-114.896)">
        <path d="M862.749,308.467L869.915,307.033C869.915,307.033 916.258,382.042 913.391,398.286C910.525,414.529 892.37,488.105 892.37,488.105L867.526,481.416L881.859,411.663L858.927,353.376L862.749,308.467Z" style="fill:rgb(94,214,179);fill-rule:nonzero;"/>
    </g>
    <g transform="matrix(1,0,0,1,-228.714,-114.896)">
        <path d="M742.353,317.066L732.32,312.766C730.674,317.294 728.709,321.7 726.441,325.951C714.588,348.244 710.821,421.218 710.821,421.218L669.733,455.617L684.066,476.638C684.066,476.638 737.542,445.654 746.175,427.907C753.385,413.085 752.386,360.542 752.386,360.542L742.353,317.066Z" style="fill:rgb(94,214,179);fill-rule:nonzero;"/>
    </g>
    <g transform="matrix(1,0,0,1,-228.714,-114.896)">
        <path d="M812.565,268.536C812.565,268.536 846.357,244.399 828.656,215.434C816.377,195.34 790.932,196.931 776.498,199.79C768.611,201.246 761.93,206.502 758.659,213.825C756.246,219.457 756.246,225.089 765.9,225.089C785.21,225.089 775.555,239.571 775.555,239.571C775.555,239.571 788.428,242.789 785.21,254.053C781.992,265.317 812.565,268.536 812.565,268.536Z" style="fill:rgb(47,46,65);fill-rule:nonzero;"/>
    </g>
</svg>
