<?xml version="1.0" encoding="UTF-8" standalone="no"?>
<!DOCTYPE svg PUBLIC "-//W3C//DTD SVG 1.1//EN" "http://www.w3.org/Graphics/SVG/1.1/DTD/svg11.dtd">
<svg width="100%" height="100%" viewBox="0 0 1000 1000" version="1.1" xmlns="http://www.w3.org/2000/svg" xmlns:xlink="http://www.w3.org/1999/xlink" xml:space="preserve" xmlns:serif="http://www.serif.com/" style="fill-rule:evenodd;clip-rule:evenodd;stroke-linecap:round;stroke-linejoin:round;stroke-miterlimit:10;">
    <g id="XMLID_19_" transform="matrix(1.6258,0,0,1.6258,-329.158,-289.651)">
        <path d="M768.9,525.8L717.5,525.8C715.3,525.8 713.5,524 713.5,521.8L713.5,430.8C713.5,428.6 715.3,426.8 717.5,426.8L768.9,426.8C771.1,426.8 772.9,428.6 772.9,430.8L772.9,521.8C772.9,524 771.1,525.8 768.9,525.8Z" style="fill:rgb(248,248,248);fill-rule:nonzero;"/>
    </g>
    <g id="XMLID_41_" transform="matrix(1.6258,0,0,1.6258,-329.158,-289.651)">
        <path d="M729.6,509.7L746.9,525.9L768.8,525.9C771,525.9 772.8,524.1 772.8,521.9L772.8,491.7L757,482.4L729.6,509.7Z" style="fill:rgb(193,193,193);fill-opacity:0.81;fill-rule:nonzero;"/>
    </g>
    <g id="XMLID_21_" transform="matrix(1.6258,0,0,1.6258,-329.158,-289.651)">
        <path d="M753.1,471.3L732.5,471.3C730.3,471.3 728.5,469.5 728.5,467.3L728.5,446.7C728.5,444.5 730.3,442.7 732.5,442.7L753.1,442.7C755.3,442.7 757.1,444.5 757.1,446.7L757.1,467.3C757.1,469.5 755.3,471.3 753.1,471.3Z" style="fill:rgb(221,221,221);fill-opacity:0.85;fill-rule:nonzero;"/>
    </g>
    <g id="XMLID_5_" transform="matrix(1.6258,0,0,1.6258,-329.158,-289.651)">
        <path d="M756.1,510.9L735.5,510.9C733.3,510.9 731.5,509.1 731.5,506.9L731.5,486.3C731.5,484.1 733.3,482.3 735.5,482.3L756.1,482.3C758.3,482.3 760.1,484.1 760.1,486.3L760.1,506.9C760.1,509.1 758.3,510.9 756.1,510.9Z" style="fill:rgb(3,3,3);fill-rule:nonzero;"/>
    </g>
    <g id="XMLID_298_" transform="matrix(1.6258,0,0,1.6258,-329.158,-289.651)">
        <path d="M745.1,502L745.1,543.1C745.1,549.6 750.4,554.9 756.9,554.9L770.6,554.9C777.1,554.9 782.4,560.2 782.4,566.7C782.4,573.2 777.1,578.5 770.6,578.5L621,578.5" style="fill:none;fill-rule:nonzero;stroke:black;stroke-width:8px;"/>
    </g>
    <g id="XMLID_16_" transform="matrix(1.6258,0,0,1.6258,-329.158,-289.651)">
        <path d="M788.8,629.3L236.1,629.3C230.1,629.3 225.2,624.4 225.2,618.4L225.2,593.9C225.2,587.9 230.1,583 236.1,583L788.9,583C794.9,583 799.8,587.9 799.8,593.9L799.8,618.4C799.7,624.4 794.8,629.3 788.8,629.3Z" style="fill:rgb(209,127,77);fill-rule:nonzero;"/>
    </g>
    <g id="XMLID_119_">
        <g id="XMLID_116_" transform="matrix(1.6258,0,0,1.6258,-329.158,-289.651)">
            <path d="M559,645.8C542.3,617.2 584.1,585.4 627.8,580.4" style="fill:none;fill-rule:nonzero;stroke:rgb(197,116,66);stroke-width:6px;"/>
        </g>
        <g id="XMLID_1_" transform="matrix(1.6258,0,0,1.6258,-329.158,-289.651)">
            <path d="M472.8,629.2C475.9,626.1 483,620 493.3,618.6C496.7,618.1 501.6,617.5 506.9,620.1C514.3,623.7 516.9,631.1 517.5,632.9" style="fill:none;fill-rule:nonzero;stroke:rgb(197,116,66);stroke-width:6px;"/>
        </g>
        <g id="XMLID_6_" transform="matrix(1.6258,0,0,1.6258,-329.158,-289.651)">
            <path d="M227.3,570.9C228.4,574.1 247.1,587.3 273.4,595.2C299.7,603 331.5,593.7 346,563.3" style="fill:none;fill-rule:nonzero;stroke:rgb(197,116,66);stroke-width:6px;"/>
        </g>
        <g id="XMLID_106_" transform="matrix(1.6258,0,0,1.6258,-329.158,-289.651)">
            <path d="M212.9,605.1C226.1,596.3 243.6,599.2 252.5,610.6C260.2,620.4 260.4,634.9 252.5,645.8" style="fill:none;fill-rule:nonzero;stroke:rgb(197,116,66);stroke-width:6px;"/>
        </g>
        <g id="XMLID_185_" transform="matrix(1.6258,0,0,1.6258,-329.158,-289.651)">
            <path d="M222.4,620.9C227.6,615.1 234.4,613 237.8,615C241.8,617.4 243.1,626.8 236.7,635.5" style="fill:none;fill-rule:nonzero;stroke:rgb(197,116,66);stroke-width:6px;"/>
        </g>
        <g id="XMLID_187_" transform="matrix(1.6258,0,0,1.6258,-329.158,-289.651)">
            <path d="M276.4,609.2C272.9,610.4 267.9,614.1 268.7,618.8C269.4,623.3 274.9,626 279.2,625.4C285.8,624.5 295,621.5 295.2,611.1C295.3,607.6 280.1,607.9 276.4,609.2Z" style="fill:none;fill-rule:nonzero;stroke:rgb(197,116,66);stroke-width:6px;"/>
        </g>
        <g id="XMLID_192_" transform="matrix(1.6258,0,0,1.6258,-329.158,-289.651)">
            <path d="M298.7,648C302.8,640 307.9,609.9 355.9,597.4C397.8,586.4 446.8,605.3 474.8,649.5" style="fill:none;fill-rule:nonzero;stroke:rgb(197,116,66);stroke-width:6px;"/>
        </g>
        <g id="XMLID_194_" transform="matrix(1.6258,0,0,1.6258,-329.158,-289.651)">
            <path d="M345.7,620.6C330.1,637 350.9,660.4 375.7,617.2C382.6,605.1 409.2,621 418.6,643.6" style="fill:none;fill-rule:nonzero;stroke:rgb(197,116,66);stroke-width:6px;"/>
        </g>
        <g id="XMLID_199_" transform="matrix(1.6258,0,0,1.6258,-329.158,-289.651)">
            <path d="M599.7,649.5C590.1,646.7 584.5,623.6 585.4,616.7C586.3,610.1 593,605.3 598.6,604.6C608.9,603.2 621.5,614.7 627.8,634.3" style="fill:none;fill-rule:nonzero;stroke:rgb(197,116,66);stroke-width:6px;"/>
        </g>
        <g id="XMLID_202_" transform="matrix(1.6258,0,0,1.6258,-329.158,-289.651)">
            <path d="M461.5,565.2C460.2,567.4 455,576.3 457.8,586.5C461.4,599.5 475.8,605.8 486.4,605.6C501.8,605.3 516.6,591.2 519.4,571.1" style="fill:none;fill-rule:nonzero;stroke:rgb(197,116,66);stroke-width:6px;"/>
        </g>
        <g id="XMLID_197_" transform="matrix(1.6258,0,0,1.6258,-329.158,-289.651)">
            <path d="M548.9,565.9C543.9,570.8 512.4,599.6 538,635" style="fill:none;fill-rule:nonzero;stroke:rgb(197,116,66);stroke-width:6px;"/>
        </g>
        <g id="XMLID_262_" transform="matrix(1.6258,0,0,1.6258,-329.158,-289.651)">
            <path d="M548.2,600.3C554.2,593.8 569.8,578.5 593.7,575.4C600.3,574.5 606.2,574.7 611.3,575.4" style="fill:none;fill-rule:nonzero;stroke:rgb(197,116,66);stroke-width:6px;"/>
        </g>
        <g id="XMLID_3_" transform="matrix(1.6258,0,0,1.6258,-329.158,-289.651)">
            <path d="M603.5,617.4C601.5,617.5 598.6,621.2 600,624.4C601.5,627.8 606.7,628 608,626.4C609.7,624.3 606.3,617.3 603.5,617.4Z" style="fill:none;fill-rule:nonzero;stroke:rgb(197,116,66);stroke-width:6px;"/>
        </g>
        <g id="XMLID_4_" transform="matrix(1.6258,0,0,1.6258,-329.158,-289.651)">
            <path d="M389.5,623.9C385.9,623.5 380.2,629.4 382,634.4C383.8,639.2 391.4,640.3 394,637.9C397.3,634.8 393.8,624.4 389.5,623.9Z" style="fill:none;fill-rule:nonzero;stroke:rgb(197,116,66);stroke-width:6px;"/>
        </g>
    </g>
    <g id="XMLID_9_" transform="matrix(1.6258,0,0,1.6258,-329.158,-289.651)">
        <path d="M587.7,428.8L389.8,428.8L389.8,368C389.8,362.5 394.3,358 399.8,358L577.6,358C583.1,358 587.6,362.5 587.6,368L587.6,428.8L587.7,428.8Z" style="fill:rgb(179,179,179);fill-rule:nonzero;"/>
    </g>
    <g id="XMLID_7_" transform="matrix(1.6258,0,0,1.6258,-329.158,-289.651)">
        <path d="M581,428.8L383.1,428.8L383.1,368C383.1,362.5 387.6,358 393.1,358L571,358C576.5,358 581,362.5 581,368L581,428.8Z" style="fill:rgb(215,215,215);fill-rule:nonzero;"/>
    </g>
    <g id="XMLID_43_" transform="matrix(1.6258,0,0,1.6258,-329.158,-289.651)">
        <path d="M581,410.7L562.9,398.2L562.9,441L581,441L581,410.7Z" style="fill:rgb(193,193,193);fill-rule:nonzero;"/>
    </g>
    <g id="XMLID_15_" transform="matrix(1.6258,0,0,1.6258,-329.158,-289.651)">
        <path d="M553.8,428.8L414.8,428.8L414.8,328.9C414.8,325 417.9,321.9 421.8,321.9L547.8,321.9C551.1,321.9 553.8,324.6 553.8,327.9L553.8,428.8Z" style="fill:rgb(231,231,231);fill-rule:nonzero;"/>
    </g>
    <g id="XMLID_12_" transform="matrix(1.6258,0,0,1.6258,-329.158,-289.651)">
        <path d="M549.9,428.8L409,428.8L409,328.9C409,325 412.1,321.9 416,321.9L543.9,321.9C547.2,321.9 549.9,324.6 549.9,327.9L549.9,428.8Z" style="fill:rgb(248,248,248);fill-rule:nonzero;"/>
    </g>
    <g id="XMLID_8_" transform="matrix(1.6258,0,0,1.6258,-329.158,-289.651)">
        <path d="M398.3,441L368.9,441L368.9,410.2C368.9,403.6 374.3,398.2 380.9,398.2L398.3,398.2L398.3,441Z" style="fill:rgb(223,225,224);fill-rule:nonzero;"/>
    </g>
    <g id="XMLID_11_" transform="matrix(1.6258,0,0,1.6258,-329.158,-289.651)">
        <path d="M408.5,441L379.1,441L379.1,410.2C379.1,403.6 384.5,398.2 391.1,398.2L408.5,398.2L408.5,441Z" style="fill:rgb(179,179,179);fill-rule:nonzero;"/>
    </g>
    <g id="XMLID_14_" transform="matrix(1.6258,0,0,1.6258,-329.158,-289.651)">
        <path d="M552.7,441L523.3,441L523.3,410.2C523.3,403.6 528.7,398.2 535.3,398.2L552.7,398.2L552.7,441Z" style="fill:rgb(223,225,224);fill-rule:nonzero;"/>
    </g>
    <g transform="matrix(1.6258,0,0,1.6258,-119.311,-116.188)">
        <circle cx="345.576" cy="317.341" r="44.239" style="fill:rgb(177,112,112);fill-opacity:0.14;"/>
    </g>
    <g id="XMLID_13_" transform="matrix(1.6258,0,0,1.6258,-329.158,-289.651)">
        <path d="M562.9,441L533.5,441L533.5,410.2C533.5,403.6 538.9,398.2 545.5,398.2L562.9,398.2L562.9,441Z" style="fill:rgb(179,179,179);fill-rule:nonzero;"/>
    </g>
    <g id="XMLID_25_" transform="matrix(1.6258,0,0,1.6258,-329.158,-289.651)">
        <path d="M408.5,398.2L470.3,441L408.5,441L408.5,398.2Z" style="fill:rgb(193,193,193);fill-rule:nonzero;"/>
    </g>
    <g id="XMLID_32_" transform="matrix(1.6258,0,0,1.6258,-329.158,-289.651)">
        <rect x="297.8" y="524.2" width="380.8" height="33.5" style="fill:rgb(3,3,3);"/>
    </g>
    <g id="XMLID_27_" transform="matrix(1.6258,0,0,1.6258,-329.158,-289.651)">
        <rect x="300.6" y="483.4" width="268.5" height="81.4" style="fill:rgb(39,39,39);"/>
    </g>
    <g id="XMLID_71_" transform="matrix(1.6258,0,0,1.6258,-329.158,-289.651)">
        <path d="M529.3,580.4L363.5,580.4L363.5,514.3L517.4,514.3L517.4,550.1L529.3,557.5L529.3,580.4Z" style="fill-rule:nonzero;"/>
    </g>
    <g id="XMLID_35_" transform="matrix(1.6258,0,0,1.6258,-329.158,-289.651)">
        <path d="M523.1,500.1L391.6,500.1C380.8,500.1 372.1,508.8 372.1,519.6L372.1,558.6L390,558.6L390,524.7C390,519.9 393.9,516 398.7,516L415.6,516C418.3,516 420.5,518.2 420.5,520.9L420.5,523.2L439.9,523.2C441.2,523.2 442.2,522.1 442.2,520.9C442.2,518.2 444.4,516 447.1,516L467.8,516C470.5,516 472.7,518.2 472.7,520.9L472.7,523.2L492.1,523.2C493.4,523.2 494.4,522.1 494.4,520.9C494.4,518.2 496.6,516 499.3,516L516.2,516C521,516 524.9,519.9 524.9,524.7L524.9,534.7L542.8,534.7L542.8,519.6C542.6,508.8 533.9,500.1 523.1,500.1Z" style="fill:rgb(33,33,33);fill-rule:nonzero;"/>
    </g>
    <g id="XMLID_123_" transform="matrix(1.6258,0,0,1.6258,-329.158,-289.651)">
        <path d="M507.3,500.1L375.8,500.1C365,500.1 356.3,508.8 356.3,519.6L356.3,558.6L374.2,558.6L374.2,524.7C374.2,519.9 378.1,516 382.9,516L399.8,516C402.5,516 404.7,518.2 404.7,520.9C404.7,522.2 405.8,523.2 407,523.2L424,523.2C425.3,523.2 426.3,522.1 426.3,520.9C426.3,518.2 428.5,516 431.2,516L451.9,516C454.6,516 456.8,518.2 456.8,520.9C456.8,522.2 457.9,523.2 459.1,523.2L476.1,523.2C477.4,523.2 478.4,522.1 478.4,520.9C478.4,518.2 480.6,516 483.3,516L500.2,516C505,516 508.9,519.9 508.9,524.7L508.9,534.7L526.8,534.7L526.8,519.6C526.8,508.8 518,500.1 507.3,500.1Z" style="fill:rgb(76,76,76);fill-rule:nonzero;"/>
    </g>
    <g id="XMLID_114_" transform="matrix(1.6258,0,0,1.6258,-329.158,-289.651)">
        <path d="M506,554.6L346.8,554.6L346.8,583L544.9,583C528.9,583 510.8,571.7 506,554.6Z" style="fill:rgb(39,39,39);fill-rule:nonzero;"/>
    </g>
    <g id="XMLID_33_" transform="matrix(1.6258,0,0,1.6258,-329.158,-289.651)">
        <path d="M503.7,558.8L505.9,554.6L481.3,554.6L478.7,560.4L503.7,558.8Z" style="fill:rgb(33,33,33);fill-rule:nonzero;"/>
    </g>
    <g id="XMLID_111_" transform="matrix(1.6258,0,0,1.6258,-329.158,-289.651)">
        <path d="M503.7,558.8L345.7,558.8L345.7,583L543.8,583C527.8,583 508.5,573.4 503.7,558.8Z" style="fill:rgb(76,76,76);fill-rule:nonzero;"/>
    </g>
    <g id="XMLID_304_" transform="matrix(1.6258,0,0,1.6258,-329.158,-289.651)">
        <path d="M520.1,548.2L371.5,548.2C358.3,548.2 347.5,558.9 347.5,572.2L347.5,608.6C347.5,613.6 351.6,617.7 356.6,617.7L470.8,617.7C480.5,617.7 488.4,609.8 488.4,600.1L488.4,577.1C488.4,563.9 499.1,553.1 512.4,553.1L520.1,553.1L520.1,548.2Z" style="fill:rgb(2,2,2);fill-opacity:0.2;fill-rule:nonzero;"/>
    </g>
    <g id="XMLID_186_" transform="matrix(1.6258,0,0,1.6258,-329.158,-289.651)">
        <path d="M652.2,428.9L324.2,428.9C304.8,428.9 289,444.7 289,464.1L289,537.8L345.9,537.8L345.9,518C345.9,508.3 353.8,500.4 363.5,500.4L491.2,500.4C500.9,500.4 508.8,508.3 508.8,518L508.8,537.8L687.4,537.8L687.4,464.1C687.4,444.7 671.6,428.9 652.2,428.9Z" style="fill:rgb(62,62,62);fill-rule:nonzero;"/>
    </g>
    <g id="XMLID_70_" transform="matrix(1.6258,0,0,1.6258,-329.158,-289.651)">
        <path d="M687.4,537.9L687.4,464.2C687.4,444.8 671.6,429 652.2,429L601.6,429C582.2,429 566.4,444.8 566.4,464.2L566.4,537.9L687.4,537.9Z" style="fill:rgb(44,44,44);fill-rule:nonzero;"/>
    </g>
    <g id="XMLID_121_" transform="matrix(1.6258,0,0,1.6258,-329.158,-289.651)">
        <path d="M679.7,537.9L679.7,464.2C679.7,450.8 668.8,440 655.5,440L604.9,440C591.5,440 580.7,450.9 580.7,464.2L580.7,537.9L679.7,537.9Z" style="fill:rgb(62,62,62);fill-rule:nonzero;"/>
    </g>
    <g id="XMLID_73_" transform="matrix(1.6258,0,0,1.6258,-329.158,-289.651)">
        <path d="M676.4,537.9L676.4,464.2C676.4,450.8 665.5,440 652.2,440L601.6,440C588.2,440 577.4,450.9 577.4,464.2L577.4,537.9L676.4,537.9Z" style="fill:rgb(18,18,18);fill-rule:nonzero;"/>
    </g>
    <g id="XMLID_17_" transform="matrix(1.6258,0,0,1.6258,-329.158,-289.651)">
        <path d="M788.8,629.3L636.7,629.3C630.7,629.3 625.8,624.4 625.8,618.4L625.8,593.9C625.8,587.9 630.7,583 636.7,583L788.8,583C794.8,583 799.7,587.9 799.7,593.9L799.7,618.4C799.7,624.4 794.8,629.3 788.8,629.3Z" style="fill:rgb(165,81,55);fill-rule:nonzero;"/>
    </g>
    <g id="XMLID_183_" transform="matrix(1.6258,0,0,1.6258,-329.158,-289.651)">
        <rect x="407.9" y="532.2" width="14.9" height="8.3" style="fill:rgb(33,33,33);"/>
    </g>
    <g id="XMLID_39_" transform="matrix(1.6258,0,0,1.6258,-329.158,-289.651)">
        <rect x="468.9" y="532.2" width="14.9" height="8.3" style="fill:rgb(33,33,33);"/>
    </g>
    <g id="XMLID_37_" transform="matrix(1.6258,0,0,1.6258,-329.158,-289.651)">
        <rect x="394.7" y="532.2" width="14.9" height="8.3" style="fill:rgb(76,76,76);"/>
    </g>
    <g id="XMLID_109_" transform="matrix(1.6258,0,0,1.6258,-329.158,-289.651)">
        <rect x="455.6" y="532.2" width="14.9" height="5.7" style="fill:rgb(76,76,76);"/>
    </g>
    <g id="XMLID_29_" transform="matrix(1.6258,0,0,1.6258,-329.158,-289.651)">
        <rect x="409.6" y="537.4" width="60.9" height="3.1" style="fill:rgb(76,76,76);"/>
    </g>
    <g id="XMLID_224_" transform="matrix(1.6258,0,0,1.6258,-329.158,-289.651)">
        <path d="M548,428.9L321.7,428.9L321.7,432C321.7,450.6 336.8,465.7 355.4,465.7L514.2,465.7C532.8,465.7 547.9,450.6 547.9,432L547.9,428.9L548,428.9Z" style="fill:rgb(76,76,76);fill-rule:nonzero;"/>
    </g>
    <g id="XMLID_233_" transform="matrix(1.6258,0,0,1.6258,-329.158,-289.651)">
        <path d="M355.4,458.1L514.2,458.1C531.3,458.1 545.4,445.4 547.6,428.9L322,428.9C324.2,445.4 338.3,458.1 355.4,458.1Z" style="fill:rgb(14,14,14);fill-rule:nonzero;"/>
    </g>
    <g id="XMLID_86_" transform="matrix(1.6258,0,0,1.6258,-329.158,-289.651)">
        <path d="M368.9,450.2L359.8,450.2C358.6,450.2 357.6,449.2 357.6,448L357.6,447.6C357.6,446.4 358.6,445.4 359.8,445.4L368.9,445.4C370.1,445.4 371.1,446.4 371.1,447.6L371.1,448C371.1,449.2 370.1,450.2 368.9,450.2Z" style="fill:rgb(23,224,156);fill-rule:nonzero;"/>
    </g>
    <g id="XMLID_184_" transform="matrix(1.6258,0,0,1.6258,-329.158,-289.651)">
        <path d="M379,450.2L376.7,450.2C375.5,450.2 374.5,449.2 374.5,448L374.5,447.6C374.5,446.4 375.5,445.4 376.7,445.4L379,445.4C380.2,445.4 381.2,446.4 381.2,447.6L381.2,448C381.2,449.2 380.2,450.2 379,450.2Z" style="fill:rgb(147,43,58);fill-rule:nonzero;"/>
    </g>
    <g id="XMLID_105_" transform="matrix(1.6258,0,0,1.6258,-329.158,-289.651)">
        <path d="M509.1,447.4L433.7,447.4C430.9,447.4 428.6,445.1 428.6,442.3L428.6,441.3C428.6,438.5 430.9,436.2 433.7,436.2L509.1,436.2C511.9,436.2 514.2,438.5 514.2,441.3L514.2,442.3C514.1,445.1 511.9,447.4 509.1,447.4Z" style="fill:rgb(31,31,31);fill-rule:nonzero;"/>
    </g>
    <g id="XMLID_225_" transform="matrix(1.6258,0,0,1.6258,-329.158,-289.651)">
        <path d="M449,447.4L433.7,447.4C430.9,447.4 428.6,445.1 428.6,442.3L428.6,441.3C428.6,438.5 430.9,436.2 433.7,436.2L449,436.2C451.8,436.2 454.1,438.5 454.1,441.3L454.1,442.3C454.1,445.1 451.8,447.4 449,447.4Z" style="fill:rgb(49,49,49);fill-rule:nonzero;"/>
    </g>
    <g id="XMLID_226_" transform="matrix(1.6258,0,0,1.6258,-329.158,-289.651)">
        <path d="M453.9,465.8L382.6,465.8C380.7,465.8 379.1,464.2 379.1,462.3L379.1,461.6C379.1,459.7 380.7,458.1 382.6,458.1L453.9,458.1C455.8,458.1 457.4,459.7 457.4,461.6L457.4,462.3C457.4,464.2 455.8,465.8 453.9,465.8Z" style="fill:rgb(90,90,90);fill-rule:nonzero;"/>
    </g>
    <g id="XMLID_228_" transform="matrix(1.6258,0,0,1.6258,-329.158,-289.651)">
        <path d="M410.2,465.8L392.6,465.8C390.7,465.8 389.1,464.2 389.1,462.3L389.1,461.6C389.1,459.7 390.7,458.1 392.6,458.1L410.2,458.1C412.1,458.1 413.7,459.7 413.7,461.6L413.7,462.3C413.7,464.2 412.1,465.8 410.2,465.8Z" style="fill:rgb(103,103,103);fill-rule:nonzero;"/>
    </g>
    <g id="XMLID_193_" transform="matrix(1.6258,0,0,1.6258,-329.158,-289.651)">
        <path d="M345.9,543.4L289,543.4L289,547.8C289,567.2 304.8,583 324.2,583L345.8,583L345.8,543.4L345.9,543.4Z" style="fill:rgb(62,62,62);fill-rule:nonzero;"/>
    </g>
    <g id="XMLID_247_" transform="matrix(1.6258,0,0,1.6258,-329.158,-289.651)">
        <path d="M336.2,554.4L298.7,554.4C296.8,554.4 295.2,552.8 295.2,550.9L295.2,550.2C295.2,548.3 296.8,546.7 298.7,546.7L336.2,546.7C338.1,546.7 339.7,548.3 339.7,550.2L339.7,550.9C339.7,552.8 338.1,554.4 336.2,554.4Z" style="fill:rgb(77,77,77);fill-rule:nonzero;"/>
    </g>
    <g id="XMLID_239_" transform="matrix(1.6258,0,0,1.6258,-329.158,-289.651)">
        <circle cx="523.3" cy="442.2" r="3.7" style="fill:rgb(186,143,28);"/>
    </g>
    <g id="XMLID_259_" transform="matrix(1.6258,0,0,1.6258,-329.158,-289.651)">
        <path d="M477.4,540.4L360.5,540.4C347.3,540.4 336.5,551.1 336.5,564.4L336.5,583L407.9,583L407.9,610L459.7,610C469.4,610 477.3,602.1 477.3,592.4L477.3,569.4C477.3,556.2 488,545.4 501.3,545.4L517.5,545.4L517.5,540.5L477.4,540.5L477.4,540.4Z" style="fill:rgb(248,248,248);fill-rule:nonzero;"/>
    </g>
    <g id="XMLID_115_" transform="matrix(1.6258,0,0,1.6258,-329.158,-289.651)">
        <path d="M396.7,553.3L363.6,553.3C362.2,553.3 361.1,552.2 361.1,550.8L361.1,550.3C361.1,548.9 362.2,547.8 363.6,547.8L396.7,547.8C398.1,547.8 399.2,548.9 399.2,550.3L399.2,550.8C399.2,552.2 398.1,553.3 396.7,553.3Z" style="fill:rgb(221,221,221);fill-opacity:0.85;fill-rule:nonzero;"/>
    </g>
    <g id="XMLID_122_" transform="matrix(1.6258,0,0,1.6258,-329.158,-289.651)">
        <path d="M421.1,553.3L404.7,553.3C403.3,553.3 402.2,552.2 402.2,550.8L402.2,550.3C402.2,548.9 403.3,547.8 404.7,547.8L421.1,547.8C422.5,547.8 423.6,548.9 423.6,550.3L423.6,550.8C423.6,552.2 422.5,553.3 421.1,553.3Z" style="fill:rgb(221,221,221);fill-opacity:0.85;fill-rule:nonzero;"/>
    </g>
    <g id="XMLID_198_" transform="matrix(1.6258,0,0,1.6258,-329.158,-289.651)">
        <path d="M449.8,553.3L433.4,553.3C432,553.3 430.9,552.2 430.9,550.8L430.9,550.3C430.9,548.9 432,547.8 433.4,547.8L449.8,547.8C451.2,547.8 452.3,548.9 452.3,550.3L452.3,550.8C452.3,552.2 451.1,553.3 449.8,553.3Z" style="fill:rgb(221,221,221);fill-opacity:0.85;fill-rule:nonzero;"/>
    </g>
    <g id="XMLID_189_" transform="matrix(1.6258,0,0,1.6258,-329.158,-289.651)">
        <path d="M406.8,564.8L357.6,564.8C356.2,564.8 355.1,563.7 355.1,562.3L355.1,561.8C355.1,560.4 356.2,559.3 357.6,559.3L406.8,559.3C408.2,559.3 409.3,560.4 409.3,561.8L409.3,562.3C409.3,563.7 408.2,564.8 406.8,564.8Z" style="fill:rgb(221,221,221);fill-opacity:0.85;fill-rule:nonzero;"/>
    </g>
    <g id="XMLID_124_" transform="matrix(1.6258,0,0,1.6258,-329.158,-289.651)">
        <path d="M443.4,564.8L422,564.8C420.6,564.8 419.5,563.7 419.5,562.3L419.5,561.8C419.5,560.4 420.6,559.3 422,559.3L443.4,559.3C444.8,559.3 445.9,560.4 445.9,561.8L445.9,562.3C445.9,563.7 444.8,564.8 443.4,564.8Z" style="fill:rgb(221,221,221);fill-opacity:0.85;fill-rule:nonzero;"/>
    </g>
    <g id="XMLID_31_" transform="matrix(1.6258,0,0,1.6258,-329.158,-289.651)">
        <path d="M445.5,592.4L445.5,587.5C445.5,583.6 442.3,580.5 438.5,580.5L328.8,580.5C324.9,580.5 321.8,583.7 321.8,587.5L321.8,592.4C321.8,602.1 329.7,610 339.4,610L462.7,610C453.1,609.7 445.5,601.9 445.5,592.4Z" style="fill:rgb(231,231,231);fill-rule:nonzero;"/>
    </g>
    <g id="XMLID_303_">
        <g id="XMLID_162_" transform="matrix(1.6258,0,0,1.6258,-329.158,-289.651)">
            <path d="M700.8,640C701.4,637 706.4,615.4 725.7,607C727.6,606.2 749.7,596.9 759.4,609.2C765.7,617.2 764.6,631.5 755,642.2" style="fill:none;fill-rule:nonzero;stroke:rgb(157,71,46);stroke-width:6px;"/>
        </g>
        <g id="XMLID_163_" transform="matrix(1.6258,0,0,1.6258,-329.158,-289.651)">
            <path d="M723.5,648C723.3,646 721.7,628.8 732.3,621.6C736,619.1 742.4,617 744.8,619.4C747.2,621.8 745.6,628.4 740.4,635.5" style="fill:none;fill-rule:nonzero;stroke:rgb(157,71,46);stroke-width:6px;"/>
        </g>
        <g id="XMLID_164_" transform="matrix(1.6258,0,0,1.6258,-329.158,-289.651)">
            <path d="M726.4,562.2C719,569.9 698.4,592 702.9,598.1C707,603.7 730.3,594 741.1,588.6C755.4,581.4 765.5,572.8 771.9,566.6" style="fill:none;fill-rule:nonzero;stroke:rgb(157,71,46);stroke-width:6px;"/>
        </g>
        <g id="XMLID_288_" transform="matrix(1.6258,0,0,1.6258,-329.158,-289.651)">
            <path d="M802.7,576.1C788.3,575 776.3,580.8 772.6,590C769.5,597.8 773.3,605.9 775.5,610.5C782.7,625.7 797.3,632 802.6,634" style="fill:none;fill-rule:nonzero;stroke:rgb(157,71,46);stroke-width:6px;"/>
        </g>
        <g id="XMLID_289_" transform="matrix(1.6258,0,0,1.6258,-329.158,-289.651)">
            <path d="M807.1,598.9C801.5,593 794.2,592.7 791.7,595.2C789.2,597.8 789.8,605.3 796.1,610.6" style="fill:none;fill-rule:nonzero;stroke:rgb(157,71,46);stroke-width:6px;"/>
        </g>
        <g id="XMLID_87_" transform="matrix(1.6258,0,0,1.6258,-329.158,-289.651)">
            <path d="M671,635.9C661.5,632.2 657.3,622.3 660.4,615C663.1,608.5 671.3,604.7 676.5,606.6C683.2,609 687.4,621.5 682.4,637" style="fill:none;fill-rule:nonzero;stroke:rgb(157,71,46);stroke-width:6px;"/>
        </g>
        <g id="XMLID_84_" transform="matrix(1.6258,0,0,1.6258,-329.158,-289.651)">
            <path d="M619,601.1C628.4,599 637.9,602.4 642.8,609.5C649.1,618.6 647.1,632.6 636.9,640.7" style="fill:none;fill-rule:nonzero;stroke:rgb(157,71,46);stroke-width:6px;"/>
        </g>
        <g id="XMLID_295_" transform="matrix(1.6258,0,0,1.6258,-329.158,-289.651)">
            <path d="M682.8,573.6C671.7,577.3 666,585.5 667.4,590.8C668.9,596.4 678.2,599.8 684.3,597.8C693,595 698.4,580.1 695.3,560.7" style="fill:none;fill-rule:nonzero;stroke:rgb(157,71,46);stroke-width:6px;"/>
        </g>
        <g id="XMLID_300_" transform="matrix(1.6258,0,0,1.6258,-329.158,-289.651)">
            <path d="M693.8,607.7C690.7,611.2 692.8,617.1 695.3,618C698.8,619.3 705.9,611.8 704.5,608.5C703.4,605.9 697.1,604 693.8,607.7Z" style="fill:none;fill-rule:nonzero;stroke:rgb(157,71,46);stroke-width:6px;"/>
        </g>
        <g id="XMLID_302_" transform="matrix(1.6258,0,0,1.6258,-329.158,-289.651)">
            <path d="M656.4,601.4C654.6,598.1 645.2,582.2 625.6,576.8" style="fill:none;fill-rule:nonzero;stroke:rgb(157,71,46);stroke-width:6px;"/>
        </g>
    </g>
    <g transform="matrix(1.6258,0,0,1.6258,-329.158,-289.651)">
        <g id="XMLID_191_">
            <path id="XMLID_201_" d="M508.7,543.4L508.7,547.8C508.7,567.2 524.5,583 543.9,583L652.1,583C671.5,583 687.3,567.2 687.3,547.8L687.3,543.4L508.7,543.4Z" style="fill:rgb(62,62,62);fill-rule:nonzero;"/>
        </g>
    </g>
    <g id="XMLID_79_" transform="matrix(1.6258,0,0,1.6258,-329.158,-289.651)">
        <path d="M566.3,543.4L566.3,547.8C566.3,567.2 582.1,583 601.5,583L652.1,583C671.5,583 687.3,567.2 687.3,547.8L687.3,543.4L566.3,543.4Z" style="fill:rgb(44,44,44);fill-rule:nonzero;"/>
    </g>
    <g id="XMLID_223_" transform="matrix(1.6258,0,0,1.6258,-329.158,-289.651)">
        <path d="M580.6,543.4L580.6,547.8C580.6,561.2 591.5,572 604.8,572L655.4,572C668.8,572 679.6,561.1 679.6,547.8L679.6,543.4L580.6,543.4Z" style="fill:rgb(62,62,62);fill-rule:nonzero;"/>
    </g>
    <g id="XMLID_72_" transform="matrix(1.6258,0,0,1.6258,-329.158,-289.651)">
        <path d="M577.3,543.4L577.3,547.8C577.3,561.2 588.2,572 601.5,572L652.1,572C665.5,572 676.3,561.1 676.3,547.8L676.3,543.4L577.3,543.4Z" style="fill:rgb(18,18,18);fill-rule:nonzero;"/>
    </g>
    <g id="XMLID_243_" transform="matrix(1.6258,0,0,1.6258,-329.158,-289.651)">
        <path d="M555.5,554.4L518,554.4C516.1,554.4 514.5,552.8 514.5,550.9L514.5,550.2C514.5,548.3 516.1,546.7 518,546.7L555.5,546.7C557.4,546.7 559,548.3 559,550.2L559,550.9C559,552.8 557.4,554.4 555.5,554.4Z" style="fill:rgb(77,77,77);fill-rule:nonzero;"/>
    </g>
    <g id="XMLID_18_" transform="matrix(1.6258,0,0,1.6258,-329.158,-289.651)">
        <path d="M434.7,492.9L422,492.9C420.1,492.9 418.6,491.4 418.6,489.5L418.6,479.7C418.6,477.8 420.1,476.3 422,476.3L434.7,476.3C436.6,476.3 438.1,477.8 438.1,479.7L438.1,489.5C438.1,491.4 436.6,492.9 434.7,492.9Z" style="fill:rgb(14,14,14);fill-rule:nonzero;"/>
    </g>
    <g id="XMLID_2_" transform="matrix(1.6258,0,0,1.6258,-329.158,-289.651)">
        <path d="M431.4,492.9L418.7,492.9C416.8,492.9 415.3,491.4 415.3,489.5L415.3,479.7C415.3,477.8 416.8,476.3 418.7,476.3L431.4,476.3C433.3,476.3 434.8,477.8 434.8,479.7L434.8,489.5C434.8,491.4 433.3,492.9 431.4,492.9Z" style="fill:rgb(179,179,179);fill-rule:nonzero;"/>
    </g>
    <g id="XMLID_30_" opacity="0.54">
        <g id="XMLID_26_" transform="matrix(1.6258,0,0,1.6258,-329.158,-289.651)">
            <path d="M739.8,462L736.4,462C735.9,462 735.6,461.6 735.6,461.2L735.6,459.8C735.6,459.3 736,459 736.4,459L739.8,459C740.3,459 740.6,459.4 740.6,459.8L740.6,461.2C740.6,461.7 740.2,462 739.8,462Z" style="fill:rgb(14,14,14);fill-rule:nonzero;"/>
        </g>
        <g id="XMLID_34_" transform="matrix(1.6258,0,0,1.6258,-329.158,-289.651)">
            <path d="M749.2,462L745.8,462C745.3,462 745,461.6 745,461.2L745,459.8C745,459.3 745.4,459 745.8,459L749.2,459C749.7,459 750,459.4 750,459.8L750,461.2C750.1,461.7 749.7,462 749.2,462Z" style="fill:rgb(14,14,14);fill-rule:nonzero;"/>
        </g>
    </g>
    <g id="XMLID_77_" transform="matrix(1.6258,0,0,1.6258,-329.158,-289.651)">
        <rect x="741.7" y="450.6" width="2.1" height="2.9" style="fill:rgb(14,14,14);fill-opacity:0.54;"/>
    </g>
    <g id="XMLID_22_" transform="matrix(1.6258,0,0,1.6258,-329.158,-289.651)">
        <path d="M753.1,510.9L732.5,510.9C730.3,510.9 728.5,509.1 728.5,506.9L728.5,486.3C728.5,484.1 730.3,482.3 732.5,482.3L753.1,482.3C755.3,482.3 757.1,484.1 757.1,486.3L757.1,506.9C757.1,509.1 755.3,510.9 753.1,510.9Z" style="fill:rgb(18,18,18);fill-rule:nonzero;"/>
    </g>
</svg>
