<?xml version="1.0" encoding="UTF-8" standalone="no"?>
<!DOCTYPE svg PUBLIC "-//W3C//DTD SVG 1.1//EN" "http://www.w3.org/Graphics/SVG/1.1/DTD/svg11.dtd">
<svg width="100%" height="100%" viewBox="0 0 602 539" version="1.1" xmlns="http://www.w3.org/2000/svg" xmlns:xlink="http://www.w3.org/1999/xlink" xml:space="preserve" xmlns:serif="http://www.serif.com/" style="fill-rule:evenodd;clip-rule:evenodd;stroke-linejoin:round;stroke-miterlimit:2;">
    <g transform="matrix(1.18328,0,0,1.14308,-239.924,-7.96124)">
        <path d="M581.605,88.277C581.605,84.119 580.009,80.13 577.168,77.19C574.328,74.249 570.475,72.597 566.457,72.597C513.031,72.597 333.736,72.597 280.31,72.597C276.292,72.597 272.44,74.249 269.599,77.19C266.758,80.13 265.162,84.119 265.162,88.277C265.162,152.898 265.162,398.198 265.162,462.818C265.162,466.977 266.758,470.965 269.599,473.906C272.44,476.846 276.292,478.498 280.31,478.498C333.736,478.498 513.031,478.498 566.457,478.498C570.475,478.498 574.328,476.846 577.168,473.906C580.009,470.965 581.605,466.977 581.605,462.818C581.605,398.198 581.605,152.898 581.605,88.277Z" style="fill:white;"/>
    </g>
    <g id="a8ac6166-3ec4-44bd-a940-12ae5b8b67a0" transform="matrix(1.4524,0,0,1.4524,-360.578,-262.159)">
        <path d="M555.944,239.95C553.971,235.265 549.375,232.19 544.292,232.154L311.709,232.154C304.794,232.157 299.105,237.846 299.101,244.761L299.101,539.001C299.105,545.916 304.794,551.605 311.709,551.608L544.3,551.608C551.213,551.599 556.899,545.914 556.908,539.001L556.908,244.761C556.914,243.11 556.589,241.474 555.953,239.95L555.944,239.95ZM554.1,539.001C554.094,544.379 549.67,548.802 544.292,548.809L311.709,548.809C306.329,548.808 301.903,544.382 301.901,539.002L301.901,244.763C301.908,239.385 306.331,234.962 311.709,234.955L544.3,234.955C548.299,234.97 551.909,237.417 553.404,241.125C553.547,241.487 553.67,241.856 553.773,242.232C553.995,243.057 554.108,243.908 554.108,244.763L554.1,539.001Z" style="fill:rgb(63,61,86);fill-rule:nonzero;"/>
    </g>
    <g id="a2e3fa0b-f178-421f-a74c-d97ebf543334" transform="matrix(1.4524,0,0,1.4524,-425.212,-242.393)">
        <path d="M507.407,301.623L437.35,301.623C434.275,301.623 431.745,299.092 431.745,296.018C431.745,292.943 434.275,290.413 437.35,290.413L507.407,290.413C510.482,290.413 513.012,292.943 513.012,296.018C513.012,299.092 510.482,301.623 507.407,301.623Z" style="fill:rgb(63,61,86);fill-rule:nonzero;"/>
    </g>
    <g id="b8b248e7-1a59-4f26-9a1f-f08ba006a4a5" transform="matrix(1.4524,0,0,1.4524,-424.852,-313.853)">
        <path d="M507.407,331.047L437.35,331.047C437.347,331.047 437.345,331.047 437.342,331.047C434.268,331.047 431.738,328.516 431.738,325.442C431.738,322.367 434.268,319.837 437.342,319.837C437.345,319.837 437.347,319.837 437.35,319.837L507.407,319.837C507.41,319.837 507.412,319.837 507.415,319.837C510.489,319.837 513.02,322.367 513.02,325.442C513.02,328.516 510.489,331.047 507.415,331.047C507.412,331.047 507.41,331.047 507.407,331.047Z" style="fill:rgb(63,61,86);fill-rule:nonzero;"/>
    </g>
    <g id="f14e980f-453d-4106-8f6f-6df09975b283" transform="matrix(1.13404,0,0,1.4524,-196.877,-325.257)">
        <path d="M506.921,391.296L348.592,391.296C345.517,391.296 342.987,388.766 342.987,385.691C342.987,382.616 345.517,380.086 348.592,380.086L506.921,380.086C509.996,380.086 512.526,382.616 512.526,385.691C512.526,388.766 509.996,391.296 506.921,391.296Z" style="fill:rgb(204,204,204);fill-rule:nonzero;"/>
    </g>
    <g id="a41c7d3f-1ab8-4fa8-8fe0-c7e1addd1852" transform="matrix(1.4524,0,0,1.4524,-360.048,-325.257)">
        <path d="M506.921,420.72L348.592,420.72C345.517,420.72 342.987,418.19 342.987,415.115C342.987,412.04 345.517,409.51 348.592,409.51L506.921,409.51C509.996,409.51 512.526,412.04 512.526,415.115C512.526,418.19 509.996,420.72 506.921,420.72Z" style="fill:rgb(204,204,204);fill-rule:nonzero;"/>
    </g>
    <g id="edc5b707-0197-4423-9b0e-a0519931be3d" transform="matrix(1.4524,0,0,1.4524,-360.048,-325.257)">
        <path d="M506.921,450.144L348.592,450.144C345.52,450.14 342.995,447.611 342.995,444.539C342.995,441.467 345.52,438.938 348.592,438.934L506.921,438.934C506.924,438.934 506.926,438.934 506.929,438.934C510.003,438.934 512.533,441.464 512.533,444.539C512.533,447.614 510.003,450.144 506.929,450.144C506.926,450.144 506.924,450.144 506.921,450.144Z" style="fill:rgb(204,204,204);fill-rule:nonzero;"/>
    </g>
    <g id="fb042130-6ee2-42a1-966d-03aff1c9a355" transform="matrix(1.04436,0,0,1.4524,-220.093,-325.257)">
        <path d="M506.921,479.568L348.592,479.568C345.517,479.568 342.987,477.038 342.987,473.963C342.987,470.888 345.517,468.358 348.592,468.358L506.921,468.358C509.996,468.358 512.526,470.888 512.526,473.963C512.526,477.038 509.996,479.568 506.921,479.568Z" style="fill:rgb(204,204,204);fill-rule:nonzero;"/>
    </g>
    <g id="f14e980f-453d-4106-8f6f-6df09975b2831" serif:id="f14e980f-453d-4106-8f6f-6df09975b283" transform="matrix(1.13404,0,0,1.4524,-197.052,-157.526)">
        <path d="M506.921,391.296L348.592,391.296C345.517,391.296 342.987,388.766 342.987,385.691C342.987,382.616 345.517,380.086 348.592,380.086L506.921,380.086C509.996,380.086 512.526,382.616 512.526,385.691C512.526,388.766 509.996,391.296 506.921,391.296Z" style="fill:rgb(204,204,204);fill-rule:nonzero;"/>
    </g>
    <g id="a41c7d3f-1ab8-4fa8-8fe0-c7e1addd18521" serif:id="a41c7d3f-1ab8-4fa8-8fe0-c7e1addd1852" transform="matrix(1.4524,0,0,1.4524,-360.223,-157.526)">
        <path d="M506.921,420.72L348.592,420.72C345.517,420.72 342.987,418.19 342.987,415.115C342.987,412.04 345.517,409.51 348.592,409.51L506.921,409.51C509.996,409.51 512.526,412.04 512.526,415.115C512.526,418.19 509.996,420.72 506.921,420.72Z" style="fill:rgb(204,204,204);fill-rule:nonzero;"/>
    </g>
    <g id="edc5b707-0197-4423-9b0e-a0519931be3d1" serif:id="edc5b707-0197-4423-9b0e-a0519931be3d" transform="matrix(1.04532,0,0,1.4524,-220.597,-157.526)">
        <path d="M506.921,450.144L348.592,450.144C345.52,450.14 342.995,447.611 342.995,444.539C342.995,441.467 345.52,438.938 348.592,438.934L506.921,438.934C506.924,438.934 506.926,438.934 506.929,438.934C510.003,438.934 512.533,441.464 512.533,444.539C512.533,447.614 510.003,450.144 506.929,450.144C506.926,450.144 506.924,450.144 506.921,450.144Z" style="fill:rgb(204,204,204);fill-rule:nonzero;"/>
    </g>
    <g id="b1bf23b1-fd72-4a0f-8358-88f260cf5936" transform="matrix(1.4524,0,0,1.4524,73.837,3.73793e-14)">
        <circle cx="258.582" cy="54.09" r="54.09" style="fill:rgb(255,122,99);"/>
    </g>
    <g id="b8b248e7-1a59-4f26-9a1f-f08ba006a4a51" serif:id="b8b248e7-1a59-4f26-9a1f-f08ba006a4a5" transform="matrix(0.968251,0.968251,-0.912573,0.912573,124.543,-666.906)">
        <path d="M560.318,238.076L560.318,258.134C560.318,260.537 557.008,262.515 552.985,262.515C548.961,262.515 545.651,260.537 545.651,258.134L545.651,258.128L545.651,238.076L525.593,238.076C523.189,238.076 521.211,234.765 521.211,230.742C521.211,226.719 523.189,223.409 525.593,223.409L545.651,223.409L545.651,203.351C545.651,200.947 548.961,198.969 552.985,198.969C557.008,198.969 560.318,200.947 560.318,203.351L560.318,223.409L580.376,223.409C582.78,223.409 584.758,226.719 584.758,230.742C584.758,234.765 582.78,238.076 580.376,238.076L580.37,238.076L560.318,238.076Z" style="fill:white;fill-rule:nonzero;"/>
    </g>
</svg>
